<?xml version="1.0" standalone="no"?>
<!DOCTYPE svg PUBLIC "-//W3C//DTD SVG 20010904//EN"
 "http://www.w3.org/TR/2001/REC-SVG-20010904/DTD/svg10.dtd">
<svg version="1.0" xmlns="http://www.w3.org/2000/svg"
 width="512.000000pt" height="512.000000pt" viewBox="0 0 512.000000 512.000000"
 preserveAspectRatio="xMidYMid meet">
<metadata>
Created by potrace 1.14, written by Peter Selinger 2001-2017
</metadata>
<g transform="translate(0.000000,512.000000) scale(0.100000,-0.100000)"
fill="#000000" stroke="none">
<path d="M855 4480 l-530 -5 -75 -36 c-116 -56 -190 -140 -229 -259 l-21 -64
2 -1575 3 -1576 36 -76 c23 -48 55 -94 85 -124 54 -52 165 -111 229 -119 52
-7 4371 -7 4408 -1 95 18 206 82 260 150 41 52 76 127 87 188 7 35 9 607 8
1613 l-3 1560 -38 77 c-49 99 -111 161 -207 206 l-75 35 -180 4 c-301 5 -3195
7 -3760 2z m3889 -335 c17 -8 37 -27 43 -42 10 -21 13 -358 13 -1550 l0 -1523
-29 -32 -29 -33 -2181 0 -2181 0 -27 28 -28 27 0 1541 0 1541 33 29 32 29
2161 0 c1899 0 2165 -2 2193 -15z"/>
<path d="M901 3372 c-5 -2 -6 -16 0 -35 4 -18 10 -43 13 -57 2 -14 23 -110 46
-215 23 -104 44 -201 46 -215 5 -23 15 -73 79 -362 13 -62 56 -261 95 -443 39
-181 73 -331 75 -333 2 -3 77 -5 166 -6 134 -1 162 1 168 14 5 8 20 69 35 135
15 66 30 127 33 135 3 8 7 24 8 35 2 11 13 58 25 105 12 47 24 96 27 110 2 14
18 81 34 150 17 69 46 189 64 268 18 79 35 145 37 148 4 3 22 -67 43 -161 14
-64 117 -496 126 -530 6 -22 13 -51 15 -65 3 -14 7 -33 10 -42 3 -9 6 -25 8
-35 2 -10 16 -66 30 -125 14 -59 26 -114 26 -122 0 -8 6 -16 13 -18 10 -3 262
-2 318 1 12 1 19 15 24 49 11 65 13 72 24 117 19 76 44 189 47 210 1 11 14 74
29 140 29 129 68 310 90 415 8 36 30 139 50 230 55 252 105 491 105 499 0 9
-316 8 -326 -1 -6 -7 -14 -45 -44 -213 -5 -27 -31 -171 -59 -320 -27 -148 -53
-286 -56 -305 -3 -19 -9 -51 -12 -70 -4 -19 -8 -37 -8 -40 -1 -3 -9 -51 -20
-107 -10 -57 -22 -103 -27 -103 -4 0 -8 11 -8 24 0 12 -4 36 -10 52 -5 16 -11
43 -14 59 -6 33 -23 111 -90 405 -24 107 -47 209 -50 225 -3 17 -17 80 -31
140 -14 61 -28 121 -30 135 -3 14 -11 48 -17 75 l-13 50 -140 0 -140 0 -12
-50 c-11 -41 -33 -141 -118 -515 -2 -8 -10 -45 -19 -83 -9 -37 -18 -81 -21
-99 -3 -17 -7 -34 -9 -37 -2 -3 -7 -22 -10 -41 -3 -19 -12 -62 -20 -95 -9 -33
-17 -69 -19 -80 -2 -11 -12 -56 -22 -100 -20 -86 -21 -86 -39 20 -3 17 -11 57
-17 90 -6 33 -12 73 -15 90 -2 16 -11 61 -19 100 -7 38 -17 86 -20 105 -3 19
-12 71 -21 115 -8 44 -30 163 -49 265 -19 102 -37 195 -39 207 -3 11 -7 41
-11 65 l-7 43 -159 0 c-87 0 -163 -1 -168 -3z"/>
<path d="M2988 3355 c-3 -17 -2 -1610 1 -1640 1 -11 665 -12 766 -1 89 9 249
59 275 86 19 20 87 64 93 62 5 -1 6 2 3 7 -3 5 3 19 13 32 50 65 82 163 85
262 5 135 -29 234 -108 311 -38 38 -58 50 -136 83 l-25 11 25 10 c76 30 158
122 189 212 18 52 22 177 8 240 -41 173 -190 298 -387 325 -25 3 -54 9 -65 12
-11 4 -181 7 -377 8 -352 1 -357 1 -360 -20z m717 -275 c89 -29 134 -91 136
-188 2 -70 -17 -117 -63 -156 -54 -47 -114 -59 -293 -60 l-150 0 -3 211 -2
211 168 -3 c103 -1 183 -7 207 -15z m27 -660 c102 -25 157 -119 144 -246 -8
-79 -44 -130 -116 -163 -52 -24 -64 -25 -240 -25 l-185 -1 -3 215 c-1 118 -1
219 2 225 5 14 333 10 398 -5z"/>
</g>
</svg>
