<svg width="16" height="13" viewBox="0 0 16 13" fill="none" xmlns="http://www.w3.org/2000/svg">
<path d="M13.707 0.791687H1.51953C0.743164 0.791687 0.113281 1.42157 0.113281 2.19794V10.6354C0.113281 11.4118 0.743164 12.0417 1.51953 12.0417H13.707C14.4834 12.0417 15.1133 11.4118 15.1133 10.6354V2.19794C15.1133 1.42157 14.4834 0.791687 13.707 0.791687ZM1.51953 1.72919H13.707C13.9648 1.72919 14.1758 1.94012 14.1758 2.19794V3.41083C13.5342 3.95282 12.6172 4.69989 9.76367 6.96454C9.26855 7.35712 8.29297 8.30341 7.61328 8.29169C6.93359 8.30341 5.95508 7.35712 5.46289 6.96454C2.60938 4.69989 1.69238 3.95282 1.05078 3.41083V2.19794C1.05078 1.94012 1.26172 1.72919 1.51953 1.72919ZM13.707 11.1042H1.51953C1.26172 11.1042 1.05078 10.8932 1.05078 10.6354V4.62958C1.71875 5.17743 2.77344 6.02411 4.87988 7.69696C5.48047 8.17743 6.54102 9.23505 7.61328 9.22919C8.67969 9.23798 9.73145 8.18915 10.3467 7.69696C12.4531 6.02411 13.5078 5.17743 14.1758 4.62958V10.6354C14.1758 10.8932 13.9648 11.1042 13.707 11.1042Z" fill="#D01945"/>
</svg>
